<svg xmlns="http://www.w3.org/2000/svg" viewBox="0 0 440 325.93">
  <!-- Transparent background, traced logo paths from original image -->
  <g transform="translate(0,325.9259) scale(0.040741,-0.040741)" 
     fill="#2D5536" fill-rule="evenodd">
    <path d="M6885 7694 c-33 -14 -70 -29 -81 -33 -21 -9 -21 -10 17 -125 60 -180
73 -266 73 -456 0 -116 -5 -186 -17 -236 -19 -86 -64 -211 -100 -279 l-26 -50
-1 105 c0 179 -33 344 -96 486 -37 85 -144 240 -208 303 l-55 54 -33 -29 c-18
-16 -50 -47 -70 -69 l-37 -41 59 -83 c177 -247 237 -525 175 -816 -22 -104
-53 -180 -110 -265 -96 -145 -250 -283 -419 -376 l-69 -37 6 29 c21 96 29 178
24 240 -9 125 -61 294 -90 294 -18 0 -159 -58 -171 -70 -4 -4 0 -31 10 -62 29
-81 26 -273 -4 -350 -31 -76 -68 -130 -149 -211 -69 -71 -127 -105 -215 -129
-92 -24 -233 27 -341 122 -94 85 -130 161 -150 326 l-13 99 -88 13 c-48 8 -91
11 -94 7 -4 -4 -6 -61 -6 -128 2 -133 24 -241 69 -332 13 -27 23 -51 21 -53
-2 -1 -42 19 -90 47 -93 54 -188 125 -251 190 -21 23 -43 41 -48 41 -16 0
-137 -90 -137 -102 0 -20 82 -118 164 -195 143 -134 293 -217 480 -263 61 -15
112 -32 114 -38 3 -11 -31 -35 -122 -87 -70 -39 -130 -98 -172 -166 -29 -49
-51 -69 -127 -118 -213 -138 -439 -304 -449 -330 -17 -45 -4 -193 23 -248 33
-68 191 -230 238 -243 20 -5 127 -10 237 -10 201 0 202 0 255 -28 96 -50 145
-147 143 -287 -2 -181 -105 -349 -280 -454 l-53 -33 -88 53 c-184 110 -332
236 -467 398 -300 360 -444 864 -382 1331 39 290 120 507 276 745 309 470 761
744 1331 806 263 29 640 -34 876 -146 l94 -44 15 34 c45 108 54 335 19 470
-21 83 -70 179 -106 209 -36 31 -148 67 -317 103 -122 26 -139 28 -412 27
-269 0 -293 -2 -425 -28 -175 -34 -288 -66 -440 -123 -828 -313 -1424 -1051
-1561 -1933 -22 -145 -29 -421 -14 -565 31 -304 135 -652 271 -905 104 -193
306 -459 460 -605 377 -357 841 -585 1349 -662 163 -24 539 -24 705 0 220 33
423 91 596 170 90 41 161 85 157 97 -2 5 -100 117 -218 250 -143 160 -220 239
-230 236 -8 -3 -60 -21 -116 -40 -114 -41 -261 -73 -349 -78 -59 -3 -60 -3
-57 22 2 14 4 75 5 135 2 103 -1 117 -34 212 -20 55 -55 135 -79 177 -52 91
-170 249 -269 361 -39 44 -70 87 -69 95 3 13 33 15 198 15 136 0 207 -5 233
-14 44 -15 183 -154 317 -316 46 -55 115 -134 155 -175 39 -41 98 -106 131
-145 32 -38 61 -72 64 -75 3 -3 55 -61 115 -129 61 -69 135 -152 165 -185 31
-34 98 -110 149 -171 115 -135 279 -321 345 -392 l49 -53 428 0 c236 0 429 3
429 8 -1 4 -13 21 -28 38 -15 17 -99 114 -187 215 -88 101 -214 245 -280 319
-66 74 -186 209 -265 300 -80 91 -237 269 -350 395 -113 127 -241 271 -285
321 -44 51 -172 197 -285 326 -342 389 -360 412 -360 457 0 26 4 28 84 43 96
19 217 66 275 108 95 69 205 240 229 355 22 106 22 114 4 124 -23 12 -205 -4
-331 -29 -205 -42 -414 -183 -476 -324 -13 -28 -30 -57 -38 -64 -10 -8 -74
-17 -171 -23 -86 -5 -174 -16 -198 -25 -70 -25 -135 -73 -189 -140 -66 -83
-122 -132 -233 -201 -172 -107 -198 -136 -195 -220 1 -29 -5 -62 -16 -82 l-17
-34 -110 6 c-120 6 -153 19 -164 63 -5 19 0 32 19 52 14 15 30 45 37 67 16 54
25 65 100 117 36 24 103 73 150 107 47 34 111 80 143 102 31 22 57 43 57 48 0
4 37 47 81 95 143 152 282 217 469 218 71 0 112 5 127 14 12 7 47 47 77 87 80
106 184 181 408 293 180 89 395 219 493 296 139 110 311 289 383 398 76 114
172 309 201 405 52 179 67 433 36 641 -25 164 -123 457 -155 461 -8 1 -42 -10
-75 -23z"/>
    <path d="M7170 6323 c-68 -128 -207 -334 -270 -401 -27 -29 -50 -54 -50 -57 0
-2 24 -42 54 -87 72 -112 167 -303 204 -413 71 -211 109 -509 91 -728 -12
-152 -49 -336 -90 -453 -31 -89 -110 -254 -155 -325 l-24 -38 77 -93 c83 -100
241 -282 320 -368 l49 -53 72 111 c291 445 417 863 416 1372 -1 287 -36 507
-120 752 -71 207 -176 422 -286 586 -51 76 -196 259 -221 280 -13 11 -23 -2
-67 -85z"/>
    <path d="M2850 1265 l0 -596 123 3 c100 2 122 6 123 18 4 54 1 53 47 25 24
-14 66 -32 93 -40 66 -20 205 -20 274 0 196 59 313 245 297 478 -14 229 -168
386 -396 404 -97 7 -174 -9 -245 -52 l-56 -33 -2 191 -3 192 -127 3 -128 3 0
-596z m558 59 c87 -36 135 -114 136 -219 1 -100 -37 -165 -118 -207 -61 -31
-170 -23 -228 17 -112 78 -132 260 -40 359 58 62 169 84 250 50z"/>
    <path d="M730 1794 c-171 -36 -335 -160 -402 -304 -46 -97 -62 -166 -60 -267
2 -160 54 -287 161 -393 75 -75 154 -120 261 -149 60 -17 83 -29 120 -65 153
-148 310 -216 469 -202 87 7 153 35 228 95 l53 41 -67 64 -67 63 -54 -29 c-65
-34 -145 -38 -207 -9 -76 34 -74 43 19 89 268 133 381 467 252 747 -114 247
-413 382 -706 319z m297 -257 c69 -35 114 -82 149 -154 25 -51 29 -69 29 -148
0 -78 -4 -98 -29 -152 -33 -72 -94 -134 -164 -166 -65 -30 -206 -30 -274 1
-66 30 -125 86 -161 156 -29 56 -32 69 -32 156 0 88 3 101 33 162 37 76 93
128 169 159 73 29 209 22 280 -14z"/>
    <path d="M4510 1324 c1 -257 4 -509 7 -561 l6 -93 134 0 133 0 0 233 0 232
253 0 252 0 3 -232 2 -233 135 0 135 0 0 560 0 560 -135 0 -135 0 -2 -212 -3
-213 -252 -3 -253 -2 -2 212 -3 213 -138 3 -137 3 0 -467z"/>
    <path d="M8230 1630 l0 -110 -69 0 -70 0 -3 -100 -3 -99 70 -3 70 -3 5 -220 5
-220 30 -60 c54 -108 147 -155 305 -155 94 0 167 19 196 51 16 18 16 22 -9 81
-15 35 -31 75 -36 90 l-10 26 -38 -19 c-56 -29 -108 -25 -144 10 l-29 29 -1
166 c-1 91 -1 173 -1 181 0 46 -3 45 112 45 l110 0 0 100 0 100 -115 0 -115 0
0 110 0 110 -130 0 -130 0 0 -110z"/>
    <path d="M7440 1546 c-54 -15 -103 -39 -147 -73 l-33 -24 0 35 c0 66 0 66
-131 66 l-119 0 0 -282 c0 -156 -3 -354 -7 -440 l-6 -158 136 0 136 0 3 258
c3 243 4 259 25 299 42 77 107 109 206 100 73 -7 104 -27 135 -90 23 -45 24
-55 25 -307 l2 -260 133 0 132 0 0 268 c0 151 -5 294 -11 327 -26 143 -119
245 -254 280 -70 18 -162 18 -225 1z"/>
    <path d="M9205 1541 c-246 -70 -378 -293 -320 -539 19 -81 43 -126 99 -189
101 -112 205 -154 386 -156 121 -1 177 11 261 53 53 28 119 79 119 94 0 11
-118 136 -127 136 -3 0 -35 -15 -72 -32 -60 -30 -73 -33 -161 -33 -102 1 -138
12 -193 64 -26 23 -57 71 -57 86 0 3 151 5 336 5 l336 0 -3 108 c-4 101 -7
113 -41 184 -57 114 -151 191 -273 222 -77 21 -214 19 -290 -3z m249 -209 c47
-21 106 -90 106 -124 0 -17 -12 -18 -214 -18 l-215 0 9 30 c34 120 179 171
314 112z"/>
    <path d="M10439 1546 c-54 -14 -138 -62 -146 -82 -11 -30 -23 -12 -23 36 l0
50 -124 0 -124 0 -7 -142 c-3 -79 -4 -224 -1 -323 4 -99 6 -233 6 -297 l0
-118 129 0 130 0 3 253 3 252 27 47 c40 67 84 90 179 96 l79 5 0 118 0 119
-42 -1 c-24 0 -64 -6 -89 -13z"/>
    <path d="M1682 1258 c4 -269 7 -298 27 -356 12 -35 33 -81 47 -102 33 -50 114
-104 183 -124 114 -33 280 -11 361 49 18 14 38 25 42 25 4 0 8 -18 8 -40 l0
-40 125 0 125 0 0 440 0 440 -132 0 -133 0 3 -224 c5 -311 -11 -375 -108 -423
-109 -56 -239 -6 -269 104 -6 22 -11 145 -11 291 l0 252 -136 0 -136 0 4 -292z"/>
    <path d="M5837 1543 c-11 -10 -8 -449 3 -547 25 -216 133 -323 335 -334 113
-6 187 9 258 52 31 19 58 31 61 28 3 -3 6 -20 6 -39 l0 -33 125 0 125 0 0 440
0 440 -129 0 -129 0 -4 -252 c-3 -248 -4 -254 -29 -309 -33 -70 -79 -101 -159
-107 -81 -6 -141 22 -172 80 -22 41 -23 53 -26 316 l-3 272 -128 0 c-70 0
-131 -3 -134 -7z"/>
  </g>
</svg>